<?xml version="1.0" encoding="UTF-8" standalone="no"?>
<!DOCTYPE svg PUBLIC "-//W3C//DTD SVG 1.1//EN" "http://www.w3.org/Graphics/SVG/1.1/DTD/svg11.dtd">
<svg width="100%" height="100%" viewBox="0 0 325 325" version="1.1" xmlns="http://www.w3.org/2000/svg" xmlns:xlink="http://www.w3.org/1999/xlink" xml:space="preserve" xmlns:serif="http://www.serif.com/" style="fill-rule:evenodd;clip-rule:evenodd;stroke-linejoin:round;stroke-miterlimit:2;">
    <g transform="matrix(1,0,0,1,-8520.182067,-956.091537)">
        <g transform="matrix(1,0,0,1,5.067719,5.171044)">
            <g id="LOGO-AZUL" serif:id="LOGO AZUL">
                <g transform="matrix(0.833333,0,0,0.833333,7628.154231,214.230926)">
                    <path d="M1386.76,1040.146C1369.839,985.543 1318.247,946.366 1258.156,947.646C1185.488,949.194 1127.731,1009.323 1129.259,1081.836L1067.787,1115.513C1065.785,1104.977 1064.629,1094.136 1064.396,1083.06C1062.131,975.527 1147.606,886.363 1255.152,884.072C1362.698,881.782 1451.851,967.225 1454.116,1074.759L1386.76,1040.146Z" style="fill:rgb(0,85,204);"/>
                    <path d="M1136.294,1121.615C1154.358,1174.28 1204.965,1211.668 1263.691,1210.417C1307.229,1209.49 1345.414,1187.535 1368.703,1154.487L1439.218,1153.698C1410.582,1223.145 1343.214,1272.045 1263.36,1273.746C1175.31,1275.622 1099.588,1218.688 1073.786,1138.971L1136.294,1121.615Z" style="fill:rgb(0,85,204);"/>
                </g>
                <g transform="matrix(1,0,0,1,3968.705971,-386.854356)">
                    <path d="M4871.212,1496.718L4693.174,1551.738L4710.038,1500.278L4553.482,1539.089L4765.431,1430.717L4751.519,1487.426L4815.082,1467.874L4871.212,1496.718Z" style="fill:rgb(255,90,0);"/>
                </g>
            </g>
        </g>
    </g>
</svg>
