<?xml version="1.0" encoding="UTF-8" standalone="no"?>
<!DOCTYPE svg PUBLIC "-//W3C//DTD SVG 1.1//EN" "http://www.w3.org/Graphics/SVG/1.1/DTD/svg11.dtd">
<svg width="100%" height="100%" viewBox="0 0 1691 325" version="1.1" xmlns="http://www.w3.org/2000/svg" xmlns:xlink="http://www.w3.org/1999/xlink" xml:space="preserve" xmlns:serif="http://www.serif.com/" style="fill-rule:evenodd;clip-rule:evenodd;stroke-linejoin:round;stroke-miterlimit:2;">
    <g transform="matrix(1,0,0,1,0.000469,0.000677)">
        <g transform="matrix(1,0,0,1,-8429.261983,-2160.682855)">
            <g transform="matrix(1,0,0,1,5.067719,5.171044)">
                <g id="L.BLANCAS">
                    <g transform="matrix(0.833333,0,0,0.833333,7537.234146,1418.822243)">
                        <path d="M1067.787,1115.513C1065.785,1104.977 1064.629,1094.136 1064.396,1083.06C1062.131,975.527 1147.606,886.363 1255.152,884.072C1362.698,881.782 1451.851,967.225 1454.116,1074.759L1240.471,1140.783L1260.708,1079.032L1072.841,1125.604L1327.179,995.559L1310.485,1063.609L1386.76,1040.146C1369.839,985.543 1318.247,946.366 1258.156,947.646C1185.488,949.194 1127.731,1009.323 1129.259,1081.836L1067.787,1115.513Z" style="fill:white;"/>
                        <path d="M1136.294,1121.615C1154.358,1174.28 1204.965,1211.668 1263.691,1210.417C1307.229,1209.49 1345.414,1187.535 1368.703,1154.487L1439.218,1153.698C1410.582,1223.145 1343.214,1272.045 1263.36,1273.746C1175.31,1275.622 1099.588,1218.688 1073.786,1138.971L1136.294,1121.615Z" style="fill:white;"/>
                    </g>
                    <g transform="matrix(9.547631,0,0,9.547631,-11529.759968,-8534.90686)">
                        <g>
                            <g transform="matrix(1,0,0,1,2126.156,1148.347)">
                                <path d="M25.037,0L18.476,0C18.837,-4.16 19.018,-8.37 19.018,-12.63C19.018,-15.211 18.636,-16.963 17.871,-17.884C17.107,-18.804 15.943,-19.265 14.381,-19.265C12.506,-19.265 10.73,-18.624 9.053,-17.341C9.135,-10.927 9.176,-5.147 9.176,0L2.541,0C2.837,-5.147 2.985,-9.193 2.985,-12.136C2.985,-16.066 2.582,-19.775 1.776,-23.261L8.091,-23.952L8.51,-21.337L8.905,-21.337C11.158,-23.277 13.748,-24.248 16.675,-24.248C19.207,-24.248 21.234,-23.652 22.755,-22.459C24.276,-21.267 25.037,-19.068 25.037,-15.861C25.037,-15.384 25.016,-14.747 24.975,-13.949C24.934,-13.152 24.914,-12.333 24.914,-11.495C24.914,-9.275 24.955,-5.443 25.037,0Z" style="fill:white;"/>
                                <path d="M51.949,-14.233C51.949,-13.394 51.899,-12.301 51.801,-10.952L35.915,-10.681C36.145,-8.823 36.943,-7.277 38.308,-6.043C39.673,-4.81 41.465,-4.193 43.685,-4.193C46.152,-4.193 48.775,-4.563 51.554,-5.303L51.061,-0.518C48.791,0.304 45.979,0.715 42.625,0.715C38.382,0.715 35.13,-0.477 32.869,-2.861C30.608,-5.246 29.477,-8.115 29.477,-11.47C29.477,-14.973 30.55,-18.011 32.696,-20.585C34.842,-23.158 37.823,-24.445 41.638,-24.445C45.124,-24.445 47.714,-23.499 49.408,-21.608C51.102,-19.717 51.949,-17.259 51.949,-14.233ZM46.177,-14.455C46.177,-18.237 44.565,-20.128 41.342,-20.128C38.267,-20.128 36.441,-18.171 35.866,-14.258L46.177,-14.455Z" style="fill:white;"/>
                                <path d="M72.669,-23.434L71.238,-17.662C70.021,-18.155 68.788,-18.402 67.538,-18.402C65.121,-18.402 63.526,-17.316 62.753,-15.146C62.753,-8.584 62.802,-3.536 62.901,0L56.339,0C56.619,-4.95 56.759,-8.995 56.759,-12.136C56.759,-16.05 56.348,-19.758 55.525,-23.261L61.815,-23.952C62.095,-22.143 62.235,-21.082 62.235,-20.77L62.629,-20.77C64.142,-23.088 66.157,-24.248 68.673,-24.248C69.857,-24.248 71.189,-23.976 72.669,-23.434Z" style="fill:white;"/>
                            </g>
                            <g transform="matrix(1,0,0,1,2198.259,1148.347)">
                                <path d="M21.411,-5.18L20.992,-0.469C19.495,0.321 17.464,0.715 14.899,0.715C10.656,0.715 7.396,-0.469 5.118,-2.837C2.841,-5.205 1.702,-8.05 1.702,-11.371C1.702,-14.825 2.894,-17.838 5.279,-20.412C7.663,-22.986 10.927,-24.272 15.072,-24.272C17.094,-24.272 18.895,-24.042 20.474,-23.582L19.635,-18.55C18.122,-19.174 16.428,-19.487 14.554,-19.487C12.564,-19.487 10.993,-18.784 9.842,-17.378C8.691,-15.972 8.115,-14.241 8.115,-12.185C8.115,-9.949 8.798,-8.058 10.163,-6.512C11.528,-4.966 13.46,-4.193 15.96,-4.193C17.423,-4.193 19.24,-4.522 21.411,-5.18Z" style="fill:white;"/>
                                <path d="M48.003,-12.259C48.003,-8.115 46.729,-4.876 44.18,-2.541C41.631,-0.206 38.63,0.962 35.176,0.962C31.887,0.962 29.067,-0.103 26.715,-2.232C24.364,-4.362 23.188,-7.359 23.188,-11.223C23.188,-15.384 24.471,-18.64 27.036,-20.992C29.601,-23.343 32.611,-24.519 36.064,-24.519C39.337,-24.519 42.145,-23.446 44.488,-21.3C46.831,-19.154 48.003,-16.14 48.003,-12.259ZM41.565,-11.519C41.565,-13.904 41.006,-15.906 39.888,-17.526C38.769,-19.146 37.314,-19.956 35.522,-19.956C33.778,-19.956 32.36,-19.199 31.266,-17.686C30.173,-16.173 29.626,-14.282 29.626,-12.013C29.626,-9.628 30.185,-7.626 31.303,-6.006C32.422,-4.387 33.877,-3.577 35.67,-3.577C37.413,-3.577 38.831,-4.333 39.925,-5.846C41.018,-7.359 41.565,-9.25 41.565,-11.519Z" style="fill:white;"/>
                                <path d="M68.723,-23.434L67.293,-17.662C66.076,-18.155 64.842,-18.402 63.593,-18.402C61.175,-18.402 59.58,-17.316 58.807,-15.146C58.807,-8.584 58.856,-3.536 58.955,0L52.394,0C52.673,-4.95 52.813,-8.995 52.813,-12.136C52.813,-16.05 52.402,-19.758 51.58,-23.261L57.87,-23.952C58.149,-22.143 58.289,-21.082 58.289,-20.77L58.684,-20.77C60.197,-23.088 62.211,-24.248 64.727,-24.248C65.911,-24.248 67.243,-23.976 68.723,-23.434Z" style="fill:white;"/>
                            </g>
                        </g>
                    </g>
                </g>
            </g>
        </g>
    </g>
</svg>
